<?xml version="1.0" encoding="utf-8"?>
<!-- Generator: Adobe Illustrator 21.0.0, SVG Export Plug-In . SVG Version: 6.00 Build 0)  -->
<svg version="1.1" id="Layer_1" xmlns="http://www.w3.org/2000/svg" xmlns:xlink="http://www.w3.org/1999/xlink" x="0px" y="0px"
	 viewBox="0 0 99.2 56.7" style="enable-background:new 0 0 99.2 56.7;" xml:space="preserve">
<style type="text/css">
	.st0{fill:#E6E7E8;}
	.st1{fill:#1F4067;}
	.st2{fill:url(#SVGID_1_);}
	.st3{fill:#E86858;}
	.st4{fill:#FFFFFF;}
	.st5{fill-rule:evenodd;clip-rule:evenodd;fill:#E86858;}
	.st6{fill-rule:evenodd;clip-rule:evenodd;fill:#1F4067;}
	.st7{fill-rule:evenodd;clip-rule:evenodd;fill:#FFFFFF;}
	.st8{fill:#4D6685;}
	.st9{fill:#7A8CA4;}
	.st10{fill:#A5B2C3;}
	.st11{fill:#D3D9E1;}
	.st12{fill:#EC8578;}
	.st13{fill:#F1A49C;}
	.st14{fill:#F5C3BC;}
	.st15{fill:#FAE1DD;}
	.st16{fill:none;stroke:#BCBEC0;stroke-width:0.5;stroke-miterlimit:10;}
</style>
<g>
	<g>
		<path class="st6" d="M13.8,31.9h2.3l0.6-3.4c-0.4-0.4-1.1-0.7-2.1-0.9L13.8,31.9z"/>
		<polygon class="st6" points="17.8,21.8 15.5,21.8 14.7,26.7 17.1,26 		"/>
		<polygon class="st6" points="23.2,21.8 20.9,21.8 20.4,25 22.7,24.3 		"/>
		<polygon class="st6" points="19.2,31.9 21.5,31.9 22.5,25.8 19.9,27.9 		"/>
		<path class="st6" d="M22.7,24.7l-2.4,0.7l-3.3,1l-2.4,0.7l-0.5,0.2c0.2,0,0.3,0,0.5,0.1c1,0.2,1.6,0.5,2.1,0.8
			c0.6,0.4,0.8,0.8,1,1.1l2.3-1.8l2.6-2.1l1.2-1L22.7,24.7z"/>
		<path class="st6" d="M27.6,24.4c-2.7,0-4.4,2-4.4,4.7c0,1.9,1.2,3,3.2,3c2.8,0,4.5-1.9,4.5-4.7C30.9,25.5,29.7,24.4,27.6,24.4z
			 M26.7,30.3c-0.8,0-1.3-0.4-1.3-1.4c0-1.7,0.8-2.6,2-2.6c0.8,0,1.3,0.4,1.3,1.5C28.7,29.3,27.9,30.3,26.7,30.3z"/>
		<path class="st6" d="M37,24.4c-0.9,0-1.7,0.4-2.3,1.3l0.2-0.8l0.5-3.2h-2.2l-1.6,10c0.8,0.2,1.9,0.4,3.2,0.4
			c3.4,0,4.6-2.7,4.6-4.8C39.3,25.6,38.5,24.4,37,24.4z M35.1,30.3c-0.3,0-0.8-0.1-1.1-0.2l0.3-2c0.5-0.9,1.4-1.9,2-1.9
			c0.5,0,0.8,0.6,0.8,1.4C37.1,28.8,36.6,30.3,35.1,30.3z"/>
		<path class="st6" d="M47.7,27.3c0-1.7-0.8-2.9-2.3-2.9c-0.9,0-1.7,0.4-2.3,1.3l0.2-0.8l0.5-3.2h-2.2l-1.6,10
			c0.8,0.2,1.9,0.4,3.2,0.4C46.5,32.1,47.7,29.4,47.7,27.3z M43.4,30.3c-0.3,0-0.8-0.1-1.1-0.2l0.3-2c0.5-0.9,1.4-1.9,2-1.9
			c0.5,0,0.8,0.6,0.8,1.4C45.4,28.8,44.9,30.3,43.4,30.3z"/>
		<path class="st6" d="M51.2,30.1l-0.1-1.6l-0.4-3.9h-2.4l1.5,7.4c-0.3,0.8-0.9,1.3-1.7,1.3c0,0,0,0,0,0h-1.5
			c-0.5,0-0.9,0.4-0.9,0.9c0,0.5,0.4,0.9,0.9,0.9l1.7,0c0,0,0,0,0,0c1.9,0,2.8-1.6,3.7-3c0.5-0.8,3.5-5.6,3.5-7.4v-0.1h-2.2
			C53.3,25.7,51.9,28.8,51.2,30.1z"/>
		<polygon class="st6" points="59.7,23.9 64.5,23.9 64.8,22 57.7,22 56.1,31.9 58.4,31.9 59,28 63.2,28 63.5,26.2 59.3,26.2 		"/>
		<path class="st6" d="M64.3,29.2c0,1.7,0.8,2.9,2.3,2.9c1.3,0,2.1-0.7,2.7-1.7l-0.1,1.6H71l1.1-7.1c-0.8-0.2-2-0.4-3.3-0.4
			C65.4,24.4,64.3,27.1,64.3,29.2z M69.4,28.3c-0.5,0.9-1.4,1.9-2,1.9c-0.5,0-0.8-0.6-0.8-1.4c0-1.1,0.5-2.6,2-2.6
			c0.3,0,0.8,0.1,1.1,0.2L69.4,28.3z"/>
		<path class="st6" d="M78.1,24.4c-1.2,0-2.2,0.8-2.8,1.9l0.1-1.8h-1.7l-1.2,7.4h2.2l0.6-3.8c0.6-0.8,1.6-1.5,2.6-1.5l0.4-2.2H78.1z
			"/>
		<path class="st6" d="M85.4,26.6c0-1.3-0.8-2.2-2.9-2.2c-2.7,0-4.3,2.1-4.3,4.6c0,1.9,0.8,3.1,3.5,3.1c0.8,0,1.8-0.1,2.5-0.4
			l0.3-1.8c-0.4,0.2-1.2,0.4-2.3,0.4c-1.3,0-1.7-0.4-1.8-1.2c0.3,0,0.7,0,1,0C84.6,29.2,85.4,27.9,85.4,26.6z M80.6,27.8
			c0.3-1,0.8-1.7,1.8-1.7c0.6,0,0.8,0.3,0.8,0.7c0,0.8-1.1,1-2.1,1C80.9,27.8,80.8,27.8,80.6,27.8z"/>
		<circle class="st6" cx="73.6" cy="33.9" r="1.1"/>
		<circle class="st6" cx="70.1" cy="33.9" r="1.1"/>
	</g>
</g>
</svg>
